<svg width="692" height="648" viewBox="0 0 692 648" fill="none" xmlns="http://www.w3.org/2000/svg">
<path d="M86.8043 266.484C86.8043 266.484 67.6635 345.54 122.982 414.837C178.301 484.134 274.032 511.531 351.079 535.637C428.126 559.742 499.859 532.902 526.432 472.314C553.005 411.726 498.24 378.652 485.659 299.22C473.079 219.789 482.518 196.992 426.023 136.223C369.528 75.4531 254.407 76.1789 177.055 137.739C99.7031 199.299 86.8043 266.484 86.8043 266.484Z" fill="#00B4D8"/>
<path opacity="0.7" d="M86.8043 266.484C86.8043 266.484 67.6635 345.54 122.982 414.837C178.301 484.134 274.032 511.531 351.079 535.637C428.126 559.742 499.859 532.902 526.432 472.314C553.005 411.726 498.24 378.652 485.659 299.22C473.079 219.789 482.518 196.992 426.023 136.223C369.528 75.4531 254.407 76.1789 177.055 137.739C99.7031 199.299 86.8043 266.484 86.8043 266.484Z" fill="white"/>
<path d="M536.314 161.404C536.314 161.404 537.698 154.691 529.629 143.441C521.56 132.192 516.232 125.634 516.232 125.634C516.232 125.634 507.928 140.175 515.346 151.295C520.829 159.168 527.004 166.599 533.809 173.508L536.314 161.404Z" fill="#00B4D8"/>
<path d="M512.966 200.712C512.966 200.712 514.35 193.998 506.281 182.749C498.212 171.5 492.856 164.942 492.856 164.942C492.856 164.942 484.552 179.483 491.984 190.59C497.465 198.469 503.64 205.903 510.447 212.816L512.966 200.712Z" fill="#00B4D8"/>
<path d="M533.283 172.744C533.283 172.744 535.442 166.264 548.244 159.862C561.046 153.459 569.004 150.103 569.004 150.103C569.004 150.103 569.004 166.562 556.852 173.107C548.044 177.619 538.85 181.438 529.366 184.524L533.283 172.744Z" fill="#00B4D8"/>
<path d="M505.326 219.089C505.326 219.089 508.205 212.79 521.643 207.749C535.082 202.707 543.428 200.089 543.428 200.089C543.428 200.089 541.531 216.458 528.757 221.772C519.497 225.398 509.927 228.29 500.15 230.416L505.326 219.089Z" fill="#00B4D8"/>
<path d="M497.354 273.741C497.354 273.741 498.738 267.015 510.779 259.485C522.82 251.955 530.363 247.717 530.363 247.717C530.363 247.717 532.162 264.099 520.868 271.797C512.628 277.165 503.92 281.873 494.835 285.872L497.354 273.741Z" fill="#00B4D8"/>
<path d="M494.434 286.896C494.434 286.896 496.842 280.416 490.559 268.22C484.276 256.025 479.971 248.78 479.971 248.78C479.971 248.78 469.591 262.064 475.196 274.052C479.426 282.576 484.412 290.752 490.102 298.495L494.434 286.896Z" fill="#00B4D8"/>
<path d="M476.373 324.181C476.373 324.181 477.757 317.468 489.784 309.925C501.811 302.383 509.381 298.08 509.381 298.08C509.381 298.08 511.18 314.448 499.887 322.16C491.643 327.522 482.935 332.23 473.854 336.234L476.373 324.181Z" fill="#00B4D8"/>
<path d="M475.681 360.858C475.681 360.858 475.224 354.028 484.801 343.855C494.379 333.681 500.565 327.888 500.565 327.888C500.565 327.888 506.738 343.297 497.894 353.432C491.37 360.578 484.218 367.198 476.511 373.222L475.681 360.858Z" fill="#00B4D8"/>
<path d="M537.573 159.849C535.608 166.757 533.237 173.558 530.473 180.222C522.488 198.716 509.976 209.291 502.378 225.919C494.78 242.546 501.52 267.002 493.811 288.736C486.102 310.47 474.255 321.136 473.799 336.532C473.342 351.929 478.864 394.736 478.864 394.736" stroke="#263238" stroke-width="0.5" stroke-linecap="round" stroke-linejoin="round"/>
<path d="M532.259 177.189L544.715 171.396" stroke="#263238" stroke-width="0.5" stroke-linecap="round" stroke-linejoin="round"/>
<path d="M534.625 168.325L531.677 159.952" stroke="#263238" stroke-width="0.5" stroke-linecap="round" stroke-linejoin="round"/>
<path d="M503.139 225.232C503.139 225.232 513.547 220.527 524.19 215.862" stroke="#263238" stroke-width="0.5" stroke-linecap="round" stroke-linejoin="round"/>
<path d="M510.447 212.816C510.447 212.816 505.783 197.562 499.14 186.805" stroke="#263238" stroke-width="0.5" stroke-linecap="round" stroke-linejoin="round"/>
<path d="M495.721 283.37C502.758 275.386 510.995 268.401 520.176 262.634" stroke="#263238" stroke-width="0.5" stroke-linecap="round" stroke-linejoin="round"/>
<path d="M491.984 292.481C490.494 285.911 488.42 279.469 485.784 273.223C482.02 264.954 481.466 263.866 481.466 263.866" stroke="#263238" stroke-width="0.5" stroke-linecap="round" stroke-linejoin="round"/>
<path d="M473.799 336.532C477.206 331.612 481.014 326.946 485.189 322.574C489.286 318.558 493.73 314.865 498.475 311.533" stroke="#263238" stroke-width="0.5" stroke-linecap="round" stroke-linejoin="round"/>
<path d="M476.511 373.157C477.054 367.962 479.065 362.997 482.338 358.772C487.542 352.616 493.701 344.451 496.178 341.224" stroke="#263238" stroke-width="0.5" stroke-linecap="round" stroke-linejoin="round"/>
<path d="M451.779 239.164C451.779 239.164 451.876 234.796 458.533 228.796C465.19 222.795 469.453 219.426 469.453 219.426C469.453 219.426 472.484 229.509 466.283 235.483C461.741 239.689 456.829 243.53 451.599 246.966L451.779 239.164Z" fill="#00B4D8"/>
<path d="M460.595 266.561C460.595 266.561 460.706 262.207 467.349 256.193C473.992 250.18 478.283 246.823 478.283 246.823C478.283 246.823 481.3 256.906 475.113 262.894C470.565 267.095 465.648 270.931 460.415 274.363L460.595 266.561Z" fill="#00B4D8"/>
<path d="M452.014 246.59C452.014 246.59 451.627 242.248 444.582 236.676C437.538 231.103 433.053 227.966 433.053 227.966C433.053 227.966 430.701 238.218 437.289 243.816C442.109 247.742 447.271 251.284 452.72 254.405L452.014 246.59Z" fill="#00B4D8"/>
<path d="M462.699 278.951C462.699 278.951 461.813 274.674 454.187 269.879C446.561 265.084 441.731 262.349 441.731 262.349C441.731 262.349 440.555 272.717 447.724 277.694C452.958 281.144 458.49 284.178 464.263 286.766L462.699 278.951Z" fill="#00B4D8"/>
<path d="M459.737 313.943C459.737 313.943 459.834 309.588 453.467 303.355C447.101 297.121 442.991 293.557 442.991 293.557C442.991 293.557 439.503 303.51 445.399 309.731C449.751 314.112 454.487 318.143 459.557 321.784L459.737 313.943Z" fill="#00B4D8"/>
<path d="M459.654 322.497C459.654 322.497 459.087 318.181 464.775 311.377C470.463 304.573 474.158 300.672 474.158 300.672C474.158 300.672 478.684 310.249 473.466 316.989C469.603 321.752 465.321 326.204 460.664 330.299L459.654 322.497Z" fill="#00B4D8"/>
<path d="M465.162 358.811C465.162 358.811 466.546 354.65 474.753 350.685C482.961 346.719 488.054 344.581 488.054 344.581C488.054 344.581 487.929 355.052 480.193 359.148C474.562 361.984 468.687 364.373 462.63 366.289L465.162 358.811Z" fill="#00B4D8"/>
<path d="M465.494 347.976C465.494 347.976 465.591 343.621 459.211 337.388C452.831 331.154 448.734 327.59 448.734 327.59C448.734 327.59 445.247 337.543 451.156 343.764C455.508 348.145 460.244 352.176 465.315 355.817L465.494 347.976Z" fill="#00B4D8"/>
<path d="M460.609 370.863C460.609 370.863 461.882 366.677 457.412 359.135C452.942 351.592 449.924 347.172 449.924 347.172C449.924 347.172 443.849 355.972 447.89 363.398C450.909 368.673 454.395 373.702 458.311 378.432L460.609 370.863Z" fill="#00B4D8"/>
<path d="M451.184 238.023C451.408 242.568 451.898 247.098 452.651 251.592C454.949 264.099 461.19 272.328 463.516 283.578C465.841 294.827 458.104 309.226 459.751 323.754C461.398 338.282 467.211 346.395 465.287 356.011C463.363 365.628 453.744 391.56 453.744 391.56" stroke="#263238" stroke-width="0.5" stroke-linecap="round" stroke-linejoin="round"/>
<path d="M452.014 249.48L445.108 244.296" stroke="#263238" stroke-width="0.5" stroke-linecap="round" stroke-linejoin="round"/>
<path d="M451.821 243.674L454.865 238.84" stroke="#263238" stroke-width="0.5" stroke-linecap="round" stroke-linejoin="round"/>
<path d="M463.156 283.046C463.156 283.046 457.384 278.808 451.433 274.558" stroke="#263238" stroke-width="0.5" stroke-linecap="round" stroke-linejoin="round"/>
<path d="M460.415 274.402C463.47 269.156 467.087 264.214 471.21 259.654" stroke="#263238" stroke-width="0.5" stroke-linecap="round" stroke-linejoin="round"/>
<path d="M459.363 320.112C456.145 314.254 452.033 308.867 447.156 304.119" stroke="#263238" stroke-width="0.5" stroke-linecap="round" stroke-linejoin="round"/>
<path d="M460.374 326.281C462.244 322.387 464.457 318.646 466.989 315.096C470.532 310.431 471.031 309.822 471.031 309.822" stroke="#263238" stroke-width="0.5" stroke-linecap="round" stroke-linejoin="round"/>
<path d="M463.432 363.204C466.539 360.773 469.869 358.605 473.383 356.724C475.575 355.757 477.676 354.621 479.667 353.328" stroke="#263238" stroke-width="0.5" stroke-linecap="round" stroke-linejoin="round"/>
<path d="M465.301 355.985C463.898 352.49 462.209 349.102 460.249 345.851C458.28 342.837 456.049 339.98 453.578 337.31" stroke="#263238" stroke-width="0.5" stroke-linecap="round" stroke-linejoin="round"/>
<path d="M458.312 378.432C458.733 375.134 458.202 371.791 456.775 368.751C454.437 364.267 451.793 358.383 450.7 356.089" stroke="#263238" stroke-width="0.5" stroke-linecap="round" stroke-linejoin="round"/>
<path d="M117.391 330.325C117.391 330.325 115.204 324.402 103.302 318.997C91.3994 313.593 83.9258 310.69 83.9258 310.69C83.9258 310.69 84.5347 325.724 95.8005 331.335C103.991 335.207 112.514 338.428 121.28 340.965L117.391 330.325Z" fill="#00B4D8"/>
<path d="M118.207 371.408C118.207 371.408 116.021 365.498 104.118 360.081C92.2158 354.663 84.7422 351.773 84.7422 351.773C84.7422 351.773 85.3511 366.807 96.6169 372.432C104.809 376.296 113.332 379.512 122.096 382.048L118.207 371.408Z" fill="#00B4D8"/>
<path d="M120.56 340.576C120.56 340.576 119.052 334.472 126.096 323.961C133.141 313.451 137.764 307.308 137.764 307.308C137.764 307.308 145.777 320.345 139.424 330.713C134.683 338.066 129.289 345.033 123.301 351.54L120.56 340.576Z" fill="#00B4D8"/>
<path d="M121.169 389.215C121.169 389.215 120.353 382.994 128.504 373.235C136.656 363.476 141.971 357.826 141.971 357.826C141.971 357.826 148.489 371.576 141.002 381.257C135.459 388.101 129.315 394.499 122.636 400.386L121.169 389.215Z" fill="#00B4D8"/>
<path d="M141.652 435.819C141.652 435.819 139.466 429.909 145.251 418.764C151.036 407.618 154.939 401.047 154.939 401.047C154.939 401.047 164.391 413.217 159.243 424.155C155.359 431.934 150.785 439.395 145.569 446.459L141.652 435.819Z" fill="#00B4D8"/>
<path d="M145.804 447.47C145.804 447.47 144.531 441.327 133.57 434.38C122.609 427.434 115.702 423.598 115.702 423.598C115.702 423.598 114.014 438.553 124.325 445.63C131.841 450.563 139.785 454.898 148.074 458.59L145.804 447.47Z" fill="#00B4D8"/>
<path d="M149.791 484.704C149.791 484.704 147.604 478.781 153.389 467.636C159.174 456.49 163.077 449.919 163.077 449.919C163.077 449.919 172.53 462.089 167.381 473.027C163.491 480.81 158.912 488.275 153.693 495.344L149.791 484.704Z" fill="#00B4D8"/>
<path d="M167.229 513.968C167.229 513.968 163.506 508.784 166.094 496.614C168.682 484.445 170.703 477.174 170.703 477.174C170.703 477.174 183.159 486.713 181.097 498.506C179.443 506.957 177.036 515.264 173.9 523.338L167.229 513.968Z" fill="#00B4D8"/>
<path d="M117.64 328.549C119.474 334.849 120.934 341.24 122.014 347.691C124.782 365.731 120.048 379.469 122.207 395.876C124.366 412.284 141.583 428.704 146.22 449.194C150.856 469.683 146.663 483.227 153.818 495.564C160.973 507.902 186.328 539.395 186.328 539.395" stroke="#263238" stroke-width="0.5" stroke-linecap="round" stroke-linejoin="round"/>
<path d="M121.917 344.529L128.92 334.601" stroke="#263238" stroke-width="0.5" stroke-linecap="round" stroke-linejoin="round"/>
<path d="M119.453 336.506L113.003 331.154" stroke="#263238" stroke-width="0.5" stroke-linecap="round" stroke-linejoin="round"/>
<path d="M122.457 395.008C122.457 395.008 128.366 386.817 134.497 378.562" stroke="#263238" stroke-width="0.5" stroke-linecap="round" stroke-linejoin="round"/>
<path d="M122.138 382.048C122.138 382.048 110.983 371.952 100.464 366.353" stroke="#263238" stroke-width="0.5" stroke-linecap="round" stroke-linejoin="round"/>
<path d="M145.085 444.126C146.73 434.794 149.816 425.735 154.247 417.234" stroke="#263238" stroke-width="0.5" stroke-linecap="round" stroke-linejoin="round"/>
<path d="M146.593 452.926C142.203 448.38 137.416 444.184 132.283 440.381C125.252 435.456 124.283 434.834 124.283 434.834" stroke="#263238" stroke-width="0.5" stroke-linecap="round" stroke-linejoin="round"/>
<path d="M153.804 495.564C154.093 490.212 154.815 484.887 155.963 479.637C157.239 474.724 158.942 469.917 161.056 465.264" stroke="#263238" stroke-width="0.5" stroke-linecap="round" stroke-linejoin="round"/>
<path d="M173.9 523.338C171.784 519.001 170.938 514.215 171.45 509.471C172.557 502.368 173.415 493.271 173.803 489.655" stroke="#263238" stroke-width="0.5" stroke-linecap="round" stroke-linejoin="round"/>
<path d="M88.6869 428.082C88.6869 428.082 86.6247 424.596 88.9637 417.014C91.3026 409.432 93.0049 404.922 93.0049 404.922C93.0049 404.922 100.34 411.597 98.3749 418.971C96.8383 424.246 94.8338 429.392 92.3821 434.354L88.6869 428.082Z" fill="#00B4D8"/>
<path d="M109.087 445.941C109.087 445.941 107.039 442.454 109.364 434.873C111.689 427.291 113.405 422.781 113.405 422.781C113.405 422.781 120.74 429.456 118.775 436.83C117.247 442.106 115.247 447.252 112.796 452.213L109.087 445.941Z" fill="#00B4D8"/>
<path d="M92.5204 433.849C92.5204 433.849 90.0846 430.583 81.7806 429.209C73.4766 427.836 68.4111 427.278 68.4111 427.278C68.4111 427.278 71.5805 436.35 79.4831 437.983C85.2197 439.019 91.0392 439.6 96.88 439.72L92.5204 433.849Z" fill="#00B4D8"/>
<path d="M116.823 454.896C116.823 454.896 114.055 451.889 105.627 451.345C97.1981 450.801 92.105 450.749 92.105 450.749C92.105 450.749 96.257 459.484 104.353 460.3C110.17 460.754 116.017 460.754 121.833 460.3L116.823 454.896Z" fill="#00B4D8"/>
<path d="M131.632 483.758C131.632 483.758 129.57 480.272 121.488 478.081C113.405 475.891 108.395 474.841 108.395 474.841C108.395 474.841 110.526 484.212 118.235 486.583C123.819 488.179 129.537 489.333 135.328 490.031L131.632 483.758Z" fill="#00B4D8"/>
<path d="M135.757 490.549C135.757 490.549 133.196 487.374 134.373 479.572C135.549 471.77 136.545 467.052 136.545 467.052C136.545 467.052 144.849 472.677 143.991 480.259C143.275 485.684 142.071 491.042 140.393 496.277L135.757 490.549Z" fill="#00B4D8"/>
<path d="M157.901 516.871C157.901 516.871 156.987 512.983 161.499 506.334C166.011 499.686 169.014 495.785 169.014 495.785C169.014 495.785 174.052 504.131 169.941 510.689C166.884 515.348 163.412 519.758 159.561 523.869L157.901 516.871Z" fill="#00B4D8"/>
<path d="M152.849 508.175C152.849 508.175 150.801 504.688 142.704 502.511C134.608 500.334 129.625 499.258 129.625 499.258C129.625 499.258 131.743 508.628 139.466 511.013C145.049 512.624 150.766 513.795 156.558 514.512L152.849 508.175Z" fill="#00B4D8"/>
<path d="M160.212 528.366C160.212 528.366 159.174 524.478 151.908 520.474C144.642 516.469 140.13 514.227 140.13 514.227C140.13 514.227 139.646 523.791 146.469 527.926C151.438 530.792 156.656 533.263 162.066 535.313L160.212 528.366Z" fill="#00B4D8"/>
<path d="M87.6904 427.434C90.0965 430.924 92.7023 434.29 95.4962 437.517C103.44 446.42 112.381 450.192 119.758 458.123C127.134 466.055 128.062 480.725 136.449 491.469C144.836 502.213 153.458 506.153 156.627 514.59C159.797 523.027 164.931 547.638 164.931 547.638" stroke="#263238" stroke-width="0.5" stroke-linecap="round" stroke-linejoin="round"/>
<path d="M93.9321 436.143L85.9326 435.002" stroke="#263238" stroke-width="0.5" stroke-linecap="round" stroke-linejoin="round"/>
<path d="M90.9287 431.62L90.9701 426.501" stroke="#263238" stroke-width="0.5" stroke-linecap="round" stroke-linejoin="round"/>
<path d="M119.19 457.877C119.19 457.877 112.547 457.009 105.765 456.205" stroke="#263238" stroke-width="0.5" stroke-linecap="round" stroke-linejoin="round"/>
<path d="M112.796 452.213C112.633 446.76 113.069 441.305 114.097 435.936" stroke="#263238" stroke-width="0.5" stroke-linecap="round" stroke-linejoin="round"/>
<path d="M134.373 488.812C128.954 485.568 123.061 483.075 116.879 481.412" stroke="#263238" stroke-width="0.5" stroke-linecap="round" stroke-linejoin="round"/>
<path d="M138.178 493.232C137.747 489.357 137.663 485.455 137.929 481.568C138.441 476.384 138.538 475.671 138.538 475.671" stroke="#263238" stroke-width="0.5" stroke-linecap="round" stroke-linejoin="round"/>
<path d="M158.689 521.083C159.931 517.821 161.478 514.668 163.312 511.661C164.565 509.948 165.671 508.145 166.62 506.269" stroke="#263238" stroke-width="0.5" stroke-linecap="round" stroke-linejoin="round"/>
<path d="M156.627 514.59C153.806 512.434 150.813 510.484 147.673 508.758C144.635 507.224 141.469 505.923 138.206 504.87" stroke="#263238" stroke-width="0.5" stroke-linecap="round" stroke-linejoin="round"/>
<path d="M162.094 535.313C160.805 532.525 158.746 530.109 156.129 528.314C152.088 525.787 147.119 522.288 145.057 520.927" stroke="#263238" stroke-width="0.5" stroke-linecap="round" stroke-linejoin="round"/>
<path d="M484.732 350.698H387.285C383.838 350.698 381.043 353.314 381.043 356.543V553.366C381.043 556.594 383.838 559.211 387.285 559.211H484.732C488.179 559.211 490.974 556.594 490.974 553.366V356.543C490.974 353.314 488.179 350.698 484.732 350.698Z" fill="white" stroke="#263238" stroke-width="1.01" stroke-linecap="round" stroke-linejoin="round"/>
<path d="M481.784 378.056H390.246C386.799 378.056 384.005 380.673 384.005 383.901V548.389C384.005 551.618 386.799 554.234 390.246 554.234H481.784C485.231 554.234 488.026 551.618 488.026 548.389V383.901C488.026 380.673 485.231 378.056 481.784 378.056Z" fill="#00B4D8"/>
<path opacity="0.5" d="M481.784 378.056H390.246C386.799 378.056 384.005 380.673 384.005 383.901V548.389C384.005 551.618 386.799 554.234 390.246 554.234H481.784C485.231 554.234 488.026 551.618 488.026 548.389V383.901C488.026 380.673 485.231 378.056 481.784 378.056Z" fill="white"/>
<path d="M462.173 305.726H409.872V350.698H462.173V305.726Z" fill="#263238" stroke="#263238" stroke-width="1.01" stroke-linecap="round" stroke-linejoin="round"/>
<path d="M414.231 310.172V345.851" stroke="white" stroke-width="1.01" stroke-linecap="round" stroke-linejoin="round"/>
<path d="M422.314 310.172V345.851" stroke="white" stroke-width="1.01" stroke-linecap="round" stroke-linejoin="round"/>
<path d="M433.856 321.525V345.851" stroke="white" stroke-width="1.01" stroke-linecap="round" stroke-linejoin="round"/>
<path d="M433.856 310.172V316.12" stroke="white" stroke-width="1.01" stroke-linecap="round" stroke-linejoin="round"/>
<path d="M484.705 394.943H387.326V495.577H484.705V394.943Z" fill="white"/>
<path d="M435.365 481.632C455.284 481.632 471.432 466.511 471.432 447.859C471.432 429.206 455.284 414.085 435.365 414.085C415.446 414.085 399.298 429.206 399.298 447.859C399.298 466.511 415.446 481.632 435.365 481.632Z" fill="#263238"/>
<path d="M441.967 424.621H428.763V471.096H441.967V424.621Z" fill="#00B4D8"/>
<path d="M460.18 454.041V441.677H410.55V454.041H460.18Z" fill="#00B4D8"/>
<path d="M587.619 463.838H434.313C430.682 463.838 427.739 466.595 427.739 469.994V553.496C427.739 556.896 430.682 559.652 434.313 559.652H587.619C591.249 559.652 594.193 556.896 594.193 553.496V469.994C594.193 466.595 591.249 463.838 587.619 463.838Z" fill="white" stroke="#263238" stroke-linecap="round" stroke-linejoin="round"/>
<path d="M443.669 505.44C442.039 505.44 440.476 504.834 439.324 503.755C438.171 502.675 437.524 501.212 437.524 499.686V484.134C437.522 483.377 437.68 482.627 437.988 481.928C438.296 481.228 438.748 480.592 439.319 480.057C439.89 479.521 440.568 479.096 441.314 478.806C442.061 478.516 442.861 478.367 443.669 478.367C445.302 478.367 446.869 478.974 448.024 480.056C449.179 481.137 449.828 482.604 449.828 484.134V499.686C449.828 500.443 449.668 501.192 449.359 501.891C449.049 502.59 448.595 503.225 448.023 503.759C447.451 504.294 446.772 504.717 446.025 505.006C445.278 505.294 444.477 505.442 443.669 505.44Z" fill="#263238" stroke="#263238" stroke-width="1.01" stroke-linecap="round" stroke-linejoin="round"/>
<path d="M447.835 483.602V493.245" stroke="white" stroke-width="1.01" stroke-linecap="round" stroke-linejoin="round"/>
<path d="M447.835 495.733V501.021" stroke="white" stroke-width="1.01" stroke-linecap="round" stroke-linejoin="round"/>
<path d="M470.56 505.44C468.93 505.44 467.367 504.834 466.215 503.755C465.062 502.675 464.415 501.212 464.415 499.686V484.134C464.413 483.377 464.571 482.627 464.879 481.928C465.187 481.228 465.639 480.592 466.21 480.057C466.781 479.521 467.459 479.096 468.205 478.806C468.952 478.516 469.752 478.367 470.56 478.367C471.368 478.367 472.168 478.516 472.915 478.806C473.661 479.096 474.339 479.521 474.91 480.057C475.481 480.592 475.933 481.228 476.241 481.928C476.549 482.627 476.707 483.377 476.705 484.134V499.686C476.705 501.212 476.058 502.675 474.905 503.755C473.753 504.834 472.19 505.44 470.56 505.44Z" fill="#263238" stroke="#263238" stroke-width="1.01" stroke-linecap="round" stroke-linejoin="round"/>
<path d="M474.74 483.602V493.245" stroke="white" stroke-width="1.01" stroke-linecap="round" stroke-linejoin="round"/>
<path d="M474.74 495.733V501.021" stroke="white" stroke-width="1.01" stroke-linecap="round" stroke-linejoin="round"/>
<path d="M497.507 505.44C495.877 505.44 494.314 504.834 493.161 503.755C492.009 502.675 491.362 501.212 491.362 499.686V484.134C491.36 483.377 491.517 482.627 491.825 481.928C492.133 481.228 492.586 480.592 493.157 480.057C493.727 479.521 494.405 479.096 495.152 478.806C495.898 478.516 496.698 478.367 497.507 478.367C498.315 478.367 499.115 478.516 499.861 478.806C500.608 479.096 501.286 479.521 501.857 480.057C502.427 480.592 502.88 481.228 503.188 481.928C503.496 482.627 503.653 483.377 503.652 484.134V499.686C503.652 501.212 503.004 502.675 501.852 503.755C500.699 504.834 499.136 505.44 497.507 505.44Z" fill="#263238" stroke="#263238" stroke-width="1.01" stroke-linecap="round" stroke-linejoin="round"/>
<path d="M501.658 483.602V493.245" stroke="white" stroke-width="1.01" stroke-linecap="round" stroke-linejoin="round"/>
<path d="M501.658 495.733V501.021" stroke="white" stroke-width="1.01" stroke-linecap="round" stroke-linejoin="round"/>
<path d="M524.425 505.44C522.796 505.44 521.233 504.834 520.08 503.755C518.928 502.675 518.28 501.212 518.28 499.686V484.134C518.278 483.377 518.436 482.627 518.744 481.928C519.052 481.228 519.504 480.592 520.075 480.057C520.646 479.521 521.324 479.096 522.07 478.806C522.817 478.516 523.617 478.367 524.425 478.367C525.233 478.367 526.034 478.516 526.78 478.806C527.526 479.096 528.204 479.521 528.775 480.057C529.346 480.592 529.798 481.228 530.106 481.928C530.414 482.627 530.572 483.377 530.57 484.134V499.686C530.57 501.212 529.923 502.675 528.77 503.755C527.618 504.834 526.055 505.44 524.425 505.44Z" fill="#263238" stroke="#263238" stroke-width="1.01" stroke-linecap="round" stroke-linejoin="round"/>
<path d="M528.577 483.602V493.245" stroke="white" stroke-width="1.01" stroke-linecap="round" stroke-linejoin="round"/>
<path d="M528.577 495.733V501.021" stroke="white" stroke-width="1.01" stroke-linecap="round" stroke-linejoin="round"/>
<path d="M551.344 505.44C550.536 505.442 549.735 505.294 548.988 505.006C548.241 504.717 547.562 504.294 546.99 503.759C546.418 503.225 545.964 502.59 545.654 501.891C545.345 501.192 545.185 500.443 545.185 499.686V484.134C545.185 482.604 545.834 481.137 546.989 480.056C548.144 478.974 549.711 478.367 551.344 478.367C552.152 478.367 552.952 478.516 553.699 478.806C554.445 479.096 555.123 479.521 555.694 480.057C556.265 480.592 556.717 481.228 557.025 481.928C557.333 482.627 557.491 483.377 557.489 484.134V499.686C557.489 501.212 556.842 502.675 555.689 503.755C554.537 504.834 552.974 505.44 551.344 505.44Z" fill="#263238" stroke="#263238" stroke-width="1.01" stroke-linecap="round" stroke-linejoin="round"/>
<path d="M555.496 483.602V493.245" stroke="white" stroke-width="1.01" stroke-linecap="round" stroke-linejoin="round"/>
<path d="M555.496 495.733V501.021" stroke="white" stroke-width="1.01" stroke-linecap="round" stroke-linejoin="round"/>
<path d="M578.249 505.44C576.619 505.44 575.056 504.834 573.904 503.755C572.751 502.675 572.104 501.212 572.104 499.686V484.134C572.102 483.377 572.26 482.627 572.568 481.928C572.876 481.228 573.328 480.592 573.899 480.057C574.47 479.521 575.148 479.096 575.894 478.806C576.641 478.516 577.441 478.367 578.249 478.367C579.057 478.367 579.857 478.516 580.604 478.806C581.35 479.096 582.028 479.521 582.599 480.057C583.17 480.592 583.622 481.228 583.93 481.928C584.238 482.627 584.396 483.377 584.394 484.134V499.686C584.394 501.212 583.747 502.675 582.594 503.755C581.442 504.834 579.879 505.44 578.249 505.44Z" fill="#263238" stroke="#263238" stroke-width="1.01" stroke-linecap="round" stroke-linejoin="round"/>
<path d="M582.401 483.602V493.245" stroke="white" stroke-width="1.01" stroke-linecap="round" stroke-linejoin="round"/>
<path d="M582.401 495.733V501.021" stroke="white" stroke-width="1.01" stroke-linecap="round" stroke-linejoin="round"/>
<path d="M443.669 546.757C442.039 546.757 440.476 546.15 439.324 545.071C438.171 543.992 437.524 542.528 437.524 541.002V525.45C437.524 523.924 438.171 522.461 439.324 521.381C440.476 520.302 442.039 519.696 443.669 519.696C444.477 519.694 445.278 519.842 446.025 520.13C446.772 520.419 447.451 520.842 448.023 521.377C448.595 521.911 449.049 522.546 449.359 523.245C449.668 523.944 449.828 524.694 449.828 525.45V541.002C449.828 541.759 449.668 542.508 449.359 543.207C449.049 543.906 448.595 544.541 448.023 545.076C447.451 545.61 446.772 546.034 446.025 546.322C445.278 546.611 444.477 546.758 443.669 546.757Z" fill="#263238" stroke="#263238" stroke-width="1.01" stroke-linecap="round" stroke-linejoin="round"/>
<path d="M447.835 524.984V534.626" stroke="white" stroke-width="1.01" stroke-linecap="round" stroke-linejoin="round"/>
<path d="M447.835 537.114V542.402" stroke="white" stroke-width="1.01" stroke-linecap="round" stroke-linejoin="round"/>
<path d="M470.56 546.757C468.93 546.757 467.367 546.15 466.215 545.071C465.062 543.992 464.415 542.528 464.415 541.002V525.45C464.415 523.924 465.062 522.461 466.215 521.381C467.367 520.302 468.93 519.696 470.56 519.696C471.367 519.694 472.167 519.842 472.914 520.131C473.66 520.419 474.338 520.843 474.909 521.378C475.48 521.912 475.933 522.547 476.241 523.246C476.549 523.945 476.707 524.694 476.705 525.45V541.002C476.707 541.758 476.549 542.507 476.241 543.206C475.933 543.905 475.48 544.54 474.909 545.075C474.338 545.61 473.66 546.033 472.914 546.322C472.167 546.611 471.367 546.758 470.56 546.757Z" fill="#263238" stroke="#263238" stroke-width="1.01" stroke-linecap="round" stroke-linejoin="round"/>
<path d="M474.74 524.984V534.626" stroke="white" stroke-width="1.01" stroke-linecap="round" stroke-linejoin="round"/>
<path d="M474.74 537.114V542.402" stroke="white" stroke-width="1.01" stroke-linecap="round" stroke-linejoin="round"/>
<path d="M497.507 546.757C495.877 546.757 494.314 546.15 493.161 545.071C492.009 543.992 491.362 542.528 491.362 541.002V525.45C491.362 523.924 492.009 522.461 493.161 521.381C494.314 520.302 495.877 519.696 497.507 519.696C499.136 519.696 500.699 520.302 501.852 521.381C503.004 522.461 503.651 523.924 503.651 525.45V541.002C503.651 542.528 503.004 543.992 501.852 545.071C500.699 546.15 499.136 546.757 497.507 546.757Z" fill="#263238" stroke="#263238" stroke-width="1.01" stroke-linecap="round" stroke-linejoin="round"/>
<path d="M501.658 524.984V534.626" stroke="white" stroke-width="1.01" stroke-linecap="round" stroke-linejoin="round"/>
<path d="M501.658 537.114V542.402" stroke="white" stroke-width="1.01" stroke-linecap="round" stroke-linejoin="round"/>
<path d="M524.425 546.757C523.618 546.758 522.818 546.611 522.072 546.322C521.325 546.033 520.647 545.61 520.076 545.075C519.505 544.54 519.052 543.905 518.744 543.206C518.436 542.507 518.278 541.758 518.28 541.002V525.45C518.278 524.694 518.436 523.945 518.744 523.246C519.052 522.547 519.505 521.912 520.076 521.378C520.647 520.843 521.325 520.419 522.072 520.131C522.818 519.842 523.618 519.694 524.425 519.696C526.055 519.696 527.618 520.302 528.77 521.381C529.923 522.461 530.57 523.924 530.57 525.45V541.002C530.57 542.528 529.923 543.992 528.77 545.071C527.618 546.15 526.055 546.757 524.425 546.757Z" fill="#263238" stroke="#263238" stroke-width="1.01" stroke-linecap="round" stroke-linejoin="round"/>
<path d="M528.577 524.984V534.626" stroke="white" stroke-width="1.01" stroke-linecap="round" stroke-linejoin="round"/>
<path d="M528.577 537.114V542.402" stroke="white" stroke-width="1.01" stroke-linecap="round" stroke-linejoin="round"/>
<path d="M551.344 546.757C550.536 546.758 549.735 546.611 548.988 546.322C548.241 546.034 547.562 545.61 546.99 545.076C546.418 544.541 545.964 543.906 545.654 543.207C545.345 542.508 545.185 541.759 545.185 541.002V525.45C545.185 524.694 545.345 523.944 545.654 523.245C545.964 522.546 546.418 521.911 546.99 521.377C547.562 520.842 548.241 520.419 548.988 520.13C549.735 519.842 550.536 519.694 551.344 519.696C552.974 519.696 554.537 520.302 555.689 521.381C556.842 522.461 557.489 523.924 557.489 525.45V541.002C557.489 542.528 556.842 543.992 555.689 545.071C554.537 546.15 552.974 546.757 551.344 546.757Z" fill="#263238" stroke="#263238" stroke-width="1.01" stroke-linecap="round" stroke-linejoin="round"/>
<path d="M555.496 524.984V534.626" stroke="white" stroke-width="1.01" stroke-linecap="round" stroke-linejoin="round"/>
<path d="M555.496 537.114V542.402" stroke="white" stroke-width="1.01" stroke-linecap="round" stroke-linejoin="round"/>
<path d="M578.249 546.757C576.619 546.757 575.056 546.15 573.904 545.071C572.751 543.992 572.104 542.528 572.104 541.002V525.45C572.104 523.924 572.751 522.461 573.904 521.381C575.056 520.302 576.619 519.696 578.249 519.696C579.056 519.694 579.856 519.842 580.603 520.131C581.349 520.419 582.027 520.843 582.598 521.378C583.169 521.912 583.622 522.547 583.93 523.246C584.238 523.945 584.396 524.694 584.394 525.45V541.002C584.396 541.758 584.238 542.507 583.93 543.206C583.622 543.905 583.169 544.54 582.598 545.075C582.027 545.61 581.349 546.033 580.603 546.322C579.856 546.611 579.056 546.758 578.249 546.757Z" fill="#263238" stroke="#263238" stroke-width="1.01" stroke-linecap="round" stroke-linejoin="round"/>
<path d="M582.401 524.984V534.626" stroke="white" stroke-width="1.01" stroke-linecap="round" stroke-linejoin="round"/>
<path d="M582.401 537.114V542.402" stroke="white" stroke-width="1.01" stroke-linecap="round" stroke-linejoin="round"/>
<path d="M457.287 468.815V472.055" stroke="#263238" stroke-width="0.5" stroke-linecap="round" stroke-linejoin="round"/>
<path d="M457.287 478.068V547.21" stroke="#263238" stroke-width="0.5" stroke-linecap="round" stroke-linejoin="round" stroke-dasharray="4.64 4.64"/>
<path d="M457.287 550.217V553.457" stroke="#263238" stroke-width="0.5" stroke-linecap="round" stroke-linejoin="round"/>
<path d="M484.206 468.815V472.055" stroke="#263238" stroke-width="0.5" stroke-linecap="round" stroke-linejoin="round"/>
<path d="M484.206 478.068V547.21" stroke="#263238" stroke-width="0.5" stroke-linecap="round" stroke-linejoin="round" stroke-dasharray="4.64 4.64"/>
<path d="M484.206 550.217V553.457" stroke="#263238" stroke-width="0.5" stroke-linecap="round" stroke-linejoin="round"/>
<path d="M511.125 468.815V472.055" stroke="#263238" stroke-width="0.5" stroke-linecap="round" stroke-linejoin="round"/>
<path d="M511.125 478.068V547.21" stroke="#263238" stroke-width="0.5" stroke-linecap="round" stroke-linejoin="round" stroke-dasharray="4.64 4.64"/>
<path d="M511.125 550.217V553.457" stroke="#263238" stroke-width="0.5" stroke-linecap="round" stroke-linejoin="round"/>
<path d="M538.03 468.815V472.055" stroke="#263238" stroke-width="0.5" stroke-linecap="round" stroke-linejoin="round"/>
<path d="M538.03 478.068V547.21" stroke="#263238" stroke-width="0.5" stroke-linecap="round" stroke-linejoin="round" stroke-dasharray="4.64 4.64"/>
<path d="M538.03 550.217V553.457" stroke="#263238" stroke-width="0.5" stroke-linecap="round" stroke-linejoin="round"/>
<path d="M564.949 468.815V472.055" stroke="#263238" stroke-width="0.5" stroke-linecap="round" stroke-linejoin="round"/>
<path d="M564.949 478.068V547.21" stroke="#263238" stroke-width="0.5" stroke-linecap="round" stroke-linejoin="round" stroke-dasharray="4.64 4.64"/>
<path d="M564.949 550.217V553.457" stroke="#263238" stroke-width="0.5" stroke-linecap="round" stroke-linejoin="round"/>
<path d="M432.029 511.752H589.21" stroke="#263238" stroke-width="0.5" stroke-linecap="round" stroke-linejoin="round" stroke-dasharray="5 5"/>
<path d="M582.304 477.096V455.933H545.753V477.096L536.992 488.333C535.76 489.923 535.096 491.837 535.096 493.802V559.211H592.906V493.776C592.905 491.811 592.241 489.897 591.01 488.307L582.304 477.096Z" fill="#263238" stroke="#263238" stroke-width="1.01" stroke-linecap="round" stroke-linejoin="round"/>
<path d="M582.318 446.226H545.905V449.893H582.318V446.226Z" fill="#263238" stroke="#263238" stroke-width="1.01" stroke-linecap="round" stroke-linejoin="round"/>
<path d="M587.605 437.892H540.438V447.288H587.605V437.892Z" fill="#00B4D8" stroke="#263238" stroke-width="1.01" stroke-linecap="round" stroke-linejoin="round"/>
<path d="M585.847 449.712H542.196C541.225 449.712 540.438 450.449 540.438 451.358V455.531C540.438 456.44 541.225 457.177 542.196 457.177H585.847C586.818 457.177 587.605 456.44 587.605 455.531V451.358C587.605 450.449 586.818 449.712 585.847 449.712Z" fill="#263238" stroke="#263238" stroke-width="1.01" stroke-linecap="round" stroke-linejoin="round"/>
<path d="M572.478 497.807H535.11V541.378H572.478V497.807Z" fill="#00B4D8" stroke="#263238" stroke-width="1.01" stroke-linecap="round" stroke-linejoin="round"/>
<path d="M351.965 149.921H168.294C157.196 149.921 148.199 158.346 148.199 168.739V540.199C148.199 550.592 157.196 559.017 168.294 559.017H351.965C363.064 559.017 372.061 550.592 372.061 540.199V168.739C372.061 158.346 363.064 149.921 351.965 149.921Z" fill="#263238"/>
<mask id="mask0_3_11" style="mask-type:luminance" maskUnits="userSpaceOnUse" x="148" y="149" width="225" height="411">
<path d="M351.965 149.921H168.294C157.196 149.921 148.199 158.346 148.199 168.739V540.199C148.199 550.592 157.196 559.017 168.294 559.017H351.965C363.064 559.017 372.061 550.592 372.061 540.199V168.739C372.061 158.346 363.064 149.921 351.965 149.921Z" fill="white"/>
</mask>
<g mask="url(#mask0_3_11)">
<path opacity="0.2" d="M167.464 149.921C162.348 149.921 157.44 151.825 153.822 155.213C150.204 158.601 148.171 163.196 148.171 167.988V540.95C148.169 543.594 148.787 546.205 149.983 548.599C151.179 550.994 152.923 553.112 155.091 554.805L285.699 149.921H167.464Z" fill="white"/>
<path d="M267.749 547.184C267.749 545.774 267.302 544.396 266.466 543.224C265.63 542.052 264.441 541.138 263.05 540.599C261.659 540.059 260.128 539.918 258.652 540.193C257.175 540.468 255.819 541.147 254.754 542.144C253.69 543.141 252.965 544.411 252.671 545.794C252.377 547.176 252.528 548.61 253.104 549.912C253.68 551.214 254.656 552.328 255.908 553.111C257.16 553.894 258.631 554.312 260.137 554.312C262.156 554.312 264.092 553.561 265.519 552.224C266.947 550.888 267.749 549.075 267.749 547.184Z" stroke="white" stroke-linecap="round" stroke-linejoin="round"/>
</g>
<path d="M351.965 149.921H168.294C157.196 149.921 148.199 158.346 148.199 168.739V540.199C148.199 550.592 157.196 559.017 168.294 559.017H351.965C363.064 559.017 372.061 550.592 372.061 540.199V168.739C372.061 158.346 363.064 149.921 351.965 149.921Z" stroke="#263238" stroke-linecap="round" stroke-linejoin="round"/>
<path d="M362.124 177.708H158.164V534.743H362.124V177.708Z" fill="#00B4D8"/>
<mask id="mask1_3_11" style="mask-type:luminance" maskUnits="userSpaceOnUse" x="158" y="177" width="205" height="358">
<path d="M362.124 177.708H158.164V534.743H362.124V177.708Z" fill="white"/>
</mask>
<g mask="url(#mask1_3_11)">
<path d="M323.856 353.886L291.526 326.527L260.137 327.033L228.748 326.527L196.417 353.886L119.965 401.034V540.147H256.096H264.178H400.308V401.034L323.856 353.886Z" fill="white" stroke="#263238" stroke-width="1.01" stroke-linecap="round" stroke-linejoin="round"/>
<path d="M257.521 456.801L243.584 475.308C243.584 475.308 260.192 468.258 276.191 462.154C292.19 456.049 312.3 436.791 316.812 429.754C321.324 422.716 327.884 412.374 327.884 412.374L307.788 397.872H329.392C329.392 397.872 328.88 375.84 322.362 357.942" stroke="#263238" stroke-width="1.01" stroke-linecap="round" stroke-linejoin="round"/>
<path d="M251.155 464.888C248.816 463.968 246.449 463.048 244.082 462.154C228.042 456.049 207.974 436.791 203.462 429.754C198.95 422.716 192.39 412.374 192.39 412.374L212.5 397.872H190.992C190.992 397.872 191.504 375.84 198.023 357.942" stroke="#263238" stroke-width="1.01" stroke-linecap="round" stroke-linejoin="round"/>
<path d="M225.966 328.601C225.966 328.601 219.724 421.407 257.521 456.801C257.521 456.801 297.394 431.166 297.394 329.715L225.966 328.601Z" fill="white"/>
<mask id="mask2_3_11" style="mask-type:luminance" maskUnits="userSpaceOnUse" x="225" y="328" width="73" height="129">
<path d="M225.966 328.601C225.966 328.601 219.724 421.407 257.521 456.801C257.521 456.801 297.394 431.166 297.394 329.715L225.966 328.601Z" fill="white"/>
</mask>
<g mask="url(#mask2_3_11)">
<path d="M247.072 222.99H279.222C288.439 222.99 297.278 226.418 303.796 232.521C310.313 238.624 313.974 246.901 313.974 255.532V323.067C313.976 328.804 312.771 334.485 310.428 339.787C308.085 345.088 304.65 349.905 300.319 353.963C295.988 358.021 290.846 361.24 285.187 363.437C279.527 365.635 273.46 366.766 267.334 366.768H259.03C252.903 366.768 246.836 365.638 241.176 363.442C235.515 361.247 230.372 358.029 226.04 353.972C221.708 349.915 218.271 345.099 215.926 339.799C213.582 334.498 212.375 328.817 212.375 323.08V255.532C212.375 246.901 216.036 238.624 222.554 232.521C229.071 226.418 237.91 222.99 247.127 222.99H247.072Z" fill="#00B4D8"/>
<path opacity="0.5" d="M247.072 222.99H279.222C288.439 222.99 297.278 226.418 303.796 232.521C310.313 238.624 313.974 246.901 313.974 255.532V323.067C313.976 328.804 312.771 334.485 310.428 339.787C308.085 345.088 304.65 349.905 300.319 353.963C295.988 358.021 290.846 361.24 285.187 363.437C279.527 365.635 273.46 366.766 267.334 366.768H259.03C252.903 366.768 246.836 365.638 241.176 363.442C235.515 361.247 230.372 358.029 226.04 353.972C221.708 349.915 218.271 345.099 215.926 339.799C213.582 334.498 212.375 328.817 212.375 323.08V255.532C212.375 246.901 216.036 238.624 222.554 232.521C229.071 226.418 237.91 222.99 247.127 222.99H247.072Z" fill="white"/>
</g>
<path d="M225.966 328.601C225.966 328.601 219.724 421.407 257.521 456.801C257.521 456.801 297.394 431.166 297.394 329.715L225.966 328.601Z" stroke="#263238" stroke-width="1.01" stroke-linecap="round" stroke-linejoin="round"/>
<path d="M241.868 320.695C241.868 320.695 238.408 361.195 259.293 376.644C259.293 376.644 281.326 365.459 281.326 321.188L241.868 320.695Z" stroke="#263238" stroke-width="1.01" stroke-linecap="round" stroke-linejoin="round"/>
<path d="M234.893 389.357L259.293 376.644L286.682 394.373" stroke="#263238" stroke-width="1.01" stroke-linecap="round" stroke-linejoin="round"/>
<path d="M265.853 397.159L270.614 384.342L259.293 376.644L244.415 384.342L252.151 396.006L239.944 430.337C244.345 440.601 250.075 449.777 257.521 456.762C257.521 456.762 268.123 449.945 278.392 429.43L265.853 397.159Z" fill="#00B4D8" stroke="#263238" stroke-width="1.01" stroke-linecap="round" stroke-linejoin="round"/>
<path d="M314.623 467.134C325.463 465.479 332.819 455.908 331.051 445.756C329.284 435.605 319.063 428.717 308.222 430.372C297.381 432.028 290.026 441.599 291.794 451.75C293.561 461.901 303.782 468.789 314.623 467.134Z" fill="white" stroke="#263238" stroke-width="1.01" stroke-linecap="round" stroke-linejoin="round"/>
<path d="M324.625 453.835C327.627 446.997 324.141 439.174 316.839 436.362C309.536 433.551 301.182 436.815 298.179 443.653C295.177 450.492 298.663 458.315 305.966 461.126C313.268 463.938 321.622 460.673 324.625 453.835Z" fill="white" stroke="#263238" stroke-width="1.01" stroke-linecap="round" stroke-linejoin="round"/>
<path d="M311.4 451.604C310.593 451.604 309.818 451.304 309.247 450.769C308.676 450.234 308.355 449.509 308.355 448.753V339.332C308.355 338.575 308.676 337.85 309.247 337.316C309.818 336.781 310.593 336.481 311.4 336.481C312.208 336.481 312.982 336.781 313.553 337.316C314.124 337.85 314.445 338.575 314.445 339.332V448.753C314.447 449.128 314.369 449.499 314.217 449.846C314.065 450.193 313.84 450.508 313.557 450.773C313.274 451.038 312.938 451.248 312.568 451.391C312.197 451.533 311.801 451.606 311.4 451.604Z" fill="#263238"/>
<path d="M215.309 491.288H215.019C212.251 490.847 185.692 466.664 183.187 460.184C180.681 453.704 181.387 443.336 181.415 442.947C181.441 442.569 181.626 442.216 181.929 441.965C182.233 441.715 182.631 441.588 183.034 441.612C183.438 441.636 183.815 441.809 184.082 442.094C184.35 442.378 184.485 442.75 184.46 443.128C184.46 443.219 183.837 453.302 186.051 459.251C188.086 464.681 211.725 486.363 215.461 488.475C217.537 487.866 225.149 481.477 227.917 474.932C227.991 474.758 228.101 474.599 228.24 474.464C228.379 474.329 228.545 474.221 228.729 474.147C228.913 474.072 229.111 474.032 229.311 474.029C229.511 474.026 229.71 474.06 229.897 474.129C230.083 474.198 230.253 474.3 230.397 474.431C230.541 474.561 230.656 474.717 230.735 474.889C230.815 475.061 230.858 475.246 230.861 475.434C230.864 475.621 230.828 475.807 230.755 475.982C227.876 482.916 218.811 491.288 215.309 491.288Z" fill="white" stroke="#263238" stroke-width="1.01" stroke-linecap="round" stroke-linejoin="round"/>
<path d="M191.712 491.288C188.197 491.288 179.145 482.916 176.211 475.904C176.063 475.552 176.069 475.159 176.23 474.811C176.391 474.464 176.693 474.19 177.069 474.051C177.446 473.912 177.865 473.918 178.237 474.069C178.608 474.22 178.9 474.502 179.048 474.854C181.816 481.399 189.415 487.814 191.504 488.398C195.241 486.285 218.88 464.603 220.914 459.173C223.129 453.224 222.52 443.141 222.506 443.051C222.48 442.672 222.616 442.3 222.883 442.016C223.151 441.732 223.528 441.558 223.932 441.534C224.335 441.51 224.733 441.637 225.036 441.888C225.34 442.138 225.525 442.491 225.551 442.869C225.551 443.31 226.215 453.626 223.779 460.106C221.343 466.586 194.84 490.821 191.947 491.21L191.712 491.288Z" fill="white" stroke="#263238" stroke-width="1.01" stroke-linecap="round" stroke-linejoin="round"/>
<path d="M203.877 394.567C203.071 394.564 202.299 394.262 201.728 393.728C201.158 393.194 200.836 392.471 200.833 391.716V343.984C200.833 343.228 201.153 342.503 201.724 341.968C202.295 341.434 203.07 341.133 203.877 341.133C204.685 341.133 205.459 341.434 206.03 341.968C206.601 342.503 206.922 343.228 206.922 343.984V391.716C206.922 392.09 206.843 392.461 206.69 392.807C206.537 393.153 206.313 393.467 206.03 393.732C205.748 393.997 205.412 394.207 205.043 394.35C204.673 394.493 204.277 394.567 203.877 394.567Z" fill="#263238"/>
<path d="M223.765 448.701C222.959 448.698 222.187 448.396 221.616 447.862C221.046 447.328 220.724 446.605 220.72 445.85V411.506C220.72 407.168 218.88 403.008 215.605 399.941C212.329 396.874 207.887 395.15 203.254 395.15C198.622 395.15 194.18 396.874 190.904 399.941C187.629 403.008 185.788 407.168 185.788 411.506V445.824C185.788 446.58 185.468 447.305 184.897 447.84C184.326 448.375 183.551 448.675 182.744 448.675C181.936 448.675 181.162 448.375 180.591 447.84C180.02 447.305 179.699 446.58 179.699 445.824V411.48C179.699 405.637 182.178 400.033 186.59 395.901C191.002 391.769 196.987 389.448 203.227 389.448C209.467 389.448 215.451 391.769 219.864 395.901C224.276 400.033 226.755 405.637 226.755 411.48V445.824C226.759 446.575 226.447 447.297 225.888 447.835C225.329 448.373 224.567 448.684 223.765 448.701Z" fill="#263238"/>
<path d="M173.398 470.595L172.884 470.969C171.339 472.093 171.06 474.177 172.26 475.624L174.51 478.337C175.71 479.784 177.936 480.046 179.481 478.921L179.995 478.548C181.54 477.424 181.82 475.339 180.62 473.892L178.37 471.18C177.169 469.733 174.943 469.471 173.398 470.595Z" fill="white" stroke="#263238" stroke-width="1.01" stroke-linecap="round" stroke-linejoin="round"/>
<path d="M226.492 478.531L227.005 478.905C228.551 480.029 230.777 479.767 231.977 478.32L234.227 475.608C235.427 474.16 235.148 472.076 233.602 470.952L233.089 470.578C231.543 469.454 229.318 469.716 228.117 471.163L225.867 473.876C224.667 475.323 224.946 477.407 226.492 478.531Z" fill="white" stroke="#263238" stroke-width="1.01" stroke-linecap="round" stroke-linejoin="round"/>
<path d="M209.69 268.622H208.403C204.413 268.622 201.178 271.651 201.178 275.387V287.531C201.178 291.267 204.413 294.296 208.403 294.296H209.69C213.68 294.296 216.914 291.267 216.914 287.531V275.387C216.914 271.651 213.68 268.622 209.69 268.622Z" fill="white" stroke="#263238" stroke-width="1.01" stroke-linecap="round" stroke-linejoin="round"/>
<path d="M316.037 268.622H314.749C310.759 268.622 307.525 271.651 307.525 275.387V287.531C307.525 291.267 310.759 294.296 314.749 294.296H316.037C320.026 294.296 323.261 291.267 323.261 287.531V275.387C323.261 271.651 320.026 268.622 316.037 268.622Z" fill="white" stroke="#263238" stroke-width="1.01" stroke-linecap="round" stroke-linejoin="round"/>
<path d="M247.072 204.301H279.222C288.439 204.301 297.279 207.73 303.796 213.833C310.313 219.936 313.975 228.213 313.975 236.844V304.379C313.975 315.965 309.059 327.078 300.31 335.271C291.56 343.464 279.694 348.067 267.32 348.067H259.016C252.889 348.067 246.822 346.937 241.162 344.741C235.502 342.546 230.358 339.328 226.026 335.271C221.694 331.214 218.257 326.398 215.913 321.097C213.568 315.797 212.361 310.116 212.361 304.379V236.844C212.361 228.22 216.017 219.948 222.525 213.847C229.034 207.745 237.862 204.312 247.072 204.301Z" fill="white" stroke="#263238" stroke-width="1.01" stroke-linecap="round" stroke-linejoin="round"/>
<path d="M251.196 261.131H235.169C233.725 261.131 232.554 262.228 232.554 263.58V264.021C232.554 265.374 233.725 266.471 235.169 266.471H251.196C252.641 266.471 253.812 265.374 253.812 264.021V263.58C253.812 262.228 252.641 261.131 251.196 261.131Z" fill="#263238" stroke="#263238" stroke-width="1.01" stroke-linecap="round" stroke-linejoin="round"/>
<path d="M293.201 261.131H277.174C275.729 261.131 274.558 262.228 274.558 263.58V264.021C274.558 265.374 275.729 266.471 277.174 266.471H293.201C294.645 266.471 295.816 265.374 295.816 264.021V263.58C295.816 262.228 294.645 261.131 293.201 261.131Z" fill="#263238" stroke="#263238" stroke-width="1.01" stroke-linecap="round" stroke-linejoin="round"/>
<path d="M249.12 277.409C249.12 280.493 247.612 282.982 245.743 282.982C243.875 282.982 242.38 280.493 242.38 277.409C242.38 274.324 243.889 271.823 245.743 271.823C247.598 271.823 249.12 274.324 249.12 277.409Z" fill="#263238" stroke="#263238" stroke-width="1.01" stroke-linecap="round" stroke-linejoin="round"/>
<path d="M287.014 277.409C287.014 280.493 285.506 282.982 283.637 282.982C281.769 282.982 280.26 280.493 280.26 277.409C280.26 274.324 281.769 271.823 283.637 271.823C285.506 271.823 287.014 274.324 287.014 277.409Z" fill="#263238" stroke="#263238" stroke-width="1.01" stroke-linecap="round" stroke-linejoin="round"/>
<path d="M281.326 204.301H244.968C236.309 204.301 228.005 207.522 221.882 213.256C215.76 218.989 212.32 226.766 212.32 234.874V306.711C212.32 317.68 216.973 328.198 225.255 335.954C233.537 343.71 244.77 348.067 256.483 348.067H269.88C275.681 348.068 281.424 347 286.783 344.922C292.142 342.845 297.011 339.798 301.113 335.958C305.214 332.117 308.467 327.558 310.686 322.539C312.905 317.521 314.046 312.143 314.044 306.711V234.874C314.044 230.854 313.197 226.873 311.552 223.159C309.907 219.446 307.496 216.073 304.457 213.233C301.418 210.393 297.81 208.143 293.841 206.61C289.872 205.077 285.619 204.293 281.326 204.301ZM306.238 296.59C306.238 296.59 306.238 305.325 296.91 314.073C296.91 314.073 287.056 301.929 282.904 300.957C280.219 300.335 270.226 300.516 263.445 300.724C256.677 300.516 246.671 300.335 244.069 300.957C239.917 301.929 230.063 314.073 230.063 314.073C220.735 305.325 220.735 296.59 220.735 296.59V256.764L225.592 250.776C227.45 248.55 228.515 245.834 228.637 243.012C228.759 240.189 227.931 237.401 226.271 235.043C224.526 232.537 223.766 229.541 224.122 226.569C224.478 223.597 225.928 220.833 228.222 218.752L228.319 218.674C230.541 216.661 233.422 215.408 236.498 215.116C239.574 214.825 242.665 215.512 245.273 217.067L252.525 222.394C255.688 224.706 259.585 225.962 263.597 225.962C267.609 225.962 271.506 224.706 274.669 222.394L281.893 217.067C284.515 215.503 287.623 214.811 290.717 215.102C293.81 215.394 296.708 216.652 298.944 218.674L299.027 218.752C301.325 220.873 302.763 223.676 303.097 226.681C303.43 229.686 302.637 232.706 300.854 235.224C299.252 237.576 298.469 240.336 298.616 243.122C298.762 245.908 299.83 248.583 301.671 250.776L306.695 256.764L306.238 296.59Z" fill="#263238" stroke="#263238" stroke-width="1.01" stroke-linecap="round" stroke-linejoin="round"/>
<path d="M270.932 294.931C270.932 294.931 277.16 294.153 277.16 297.523C277.16 300.892 273.52 303.342 266.268 300.918" fill="white"/>
<path d="M270.932 294.931C270.932 294.931 277.16 294.153 277.16 297.523C277.16 300.892 273.52 303.342 266.268 300.918" stroke="#263238" stroke-width="1.01" stroke-linecap="round" stroke-linejoin="round"/>
<path d="M270.406 267.443V295.618C270.406 297.162 269.752 298.644 268.587 299.737C267.422 300.83 265.841 301.446 264.192 301.45H258.656C254.698 301.709 253.314 300.802 252.843 299.233C252.696 298.711 252.667 298.166 252.758 297.633C252.848 297.1 253.057 296.59 253.369 296.136C253.369 294.684 259.985 294.684 259.985 294.684" fill="white"/>
<path d="M270.406 267.443V295.618C270.406 297.162 269.752 298.644 268.587 299.737C267.422 300.83 265.841 301.446 264.192 301.45H258.656C254.698 301.709 253.314 300.802 252.843 299.233C252.696 298.711 252.667 298.166 252.758 297.633C252.848 297.1 253.057 296.59 253.369 296.136C253.369 294.684 259.985 294.684 259.985 294.684" stroke="#263238" stroke-width="1.01" stroke-linecap="round" stroke-linejoin="round"/>
<path d="M263.887 317.52C258.111 317.55 252.427 316.16 247.404 313.489C246.91 313.179 246.565 312.701 246.441 312.156C246.318 311.612 246.426 311.043 246.744 310.572C247.061 310.101 247.562 309.765 248.14 309.634C248.719 309.504 249.328 309.59 249.84 309.874C254.19 312.099 259.073 313.255 264.03 313.232C268.987 313.209 273.857 312.009 278.184 309.744C278.45 309.598 278.744 309.503 279.049 309.466C279.355 309.43 279.665 309.451 279.962 309.529C280.258 309.607 280.535 309.741 280.774 309.922C281.014 310.103 281.213 310.327 281.357 310.582C281.502 310.837 281.59 311.116 281.617 311.403C281.643 311.691 281.608 311.98 281.512 312.254C281.416 312.528 281.261 312.781 281.058 312.998C280.855 313.215 280.607 313.391 280.329 313.515C275.289 316.109 269.638 317.485 263.887 317.52Z" fill="white" stroke="#263238" stroke-width="1.01" stroke-linecap="round" stroke-linejoin="round"/>
<path d="M280.551 285.833H290.599" stroke="#263238" stroke-width="1.01" stroke-linecap="round" stroke-linejoin="round"/>
<path d="M240.636 285.833H250.684" stroke="#263238" stroke-width="1.01" stroke-linecap="round" stroke-linejoin="round"/>
<path d="M200.832 526.487C210.754 526.487 218.797 518.956 218.797 509.665C218.797 500.374 210.754 492.843 200.832 492.843C190.911 492.843 182.868 500.374 182.868 509.665C182.868 518.956 190.911 526.487 200.832 526.487Z" stroke="#263238" stroke-width="0.724166" stroke-linecap="round" stroke-linejoin="round"/>
<path d="M200.805 513.825C199.843 513.825 198.921 513.467 198.241 512.831C197.561 512.194 197.179 511.33 197.179 510.43V499.673C197.179 498.772 197.561 497.909 198.241 497.272C198.921 496.635 199.843 496.277 200.805 496.277C201.766 496.277 202.689 496.635 203.369 497.272C204.049 497.909 204.431 498.772 204.431 499.673V510.43C204.431 511.33 204.049 512.194 203.369 512.831C202.689 513.467 201.766 513.825 200.805 513.825Z" fill="#263238"/>
<path d="M200.832 516.275C199.134 516.271 197.506 515.638 196.305 514.513C195.104 513.389 194.428 511.864 194.424 510.274V505.22C194.424 505.055 194.494 504.896 194.619 504.78C194.743 504.663 194.912 504.598 195.089 504.598C195.176 504.596 195.264 504.611 195.345 504.641C195.427 504.672 195.501 504.718 195.563 504.776C195.625 504.834 195.674 504.903 195.706 504.98C195.739 505.056 195.755 505.137 195.753 505.22V510.274C195.821 511.494 196.386 512.644 197.333 513.485C198.279 514.326 199.534 514.795 200.839 514.795C202.144 514.795 203.399 514.326 204.345 513.485C205.292 512.644 205.857 511.494 205.925 510.274V505.22C205.923 505.137 205.939 505.056 205.972 504.98C206.005 504.903 206.054 504.834 206.116 504.776C206.178 504.718 206.252 504.672 206.333 504.641C206.415 504.611 206.502 504.596 206.59 504.598C206.766 504.598 206.935 504.663 207.059 504.78C207.184 504.896 207.254 505.055 207.254 505.22V510.274C207.25 511.867 206.572 513.393 205.368 514.518C204.164 515.643 202.533 516.275 200.832 516.275Z" fill="#263238"/>
<path d="M200.832 522.729C200.746 522.729 200.66 522.712 200.58 522.681C200.5 522.65 200.428 522.604 200.367 522.546C200.307 522.488 200.259 522.419 200.227 522.344C200.195 522.268 200.18 522.188 200.182 522.107V515.627C200.182 515.455 200.255 515.29 200.384 515.168C200.514 515.047 200.69 514.979 200.874 514.979C201.057 514.979 201.233 515.047 201.363 515.168C201.493 515.29 201.566 515.455 201.566 515.627V522.107C201.569 522.195 201.551 522.282 201.514 522.363C201.477 522.444 201.422 522.517 201.352 522.576C201.283 522.635 201.2 522.679 201.11 522.706C201.02 522.732 200.926 522.74 200.832 522.729Z" fill="#263238"/>
<path d="M205.261 523.066H196.417C196.242 523.062 196.075 522.996 195.951 522.88C195.828 522.764 195.756 522.607 195.753 522.444C195.753 522.279 195.823 522.12 195.947 522.004C196.072 521.887 196.241 521.821 196.417 521.821H205.261C205.437 521.821 205.606 521.887 205.731 522.004C205.855 522.12 205.925 522.279 205.925 522.444C205.922 522.607 205.851 522.764 205.727 522.88C205.603 522.996 205.436 523.062 205.261 523.066Z" fill="#263238"/>
<path d="M319.787 526.487C329.709 526.487 337.752 518.956 337.752 509.665C337.752 500.374 329.709 492.843 319.787 492.843C309.866 492.843 301.823 500.374 301.823 509.665C301.823 518.956 309.866 526.487 319.787 526.487Z" stroke="#263238" stroke-width="0.724166" stroke-linecap="round" stroke-linejoin="round"/>
<path d="M330.873 504.74L325.628 507.578V505.246C325.624 504.715 325.396 504.207 324.995 503.834C324.593 503.46 324.049 503.25 323.483 503.25H311.635C311.354 503.248 311.076 503.298 310.816 503.398C310.555 503.497 310.319 503.644 310.119 503.83C309.92 504.015 309.762 504.236 309.654 504.479C309.546 504.722 309.49 504.982 309.49 505.246V514.188C309.488 514.452 309.543 514.714 309.65 514.959C309.757 515.203 309.915 515.425 310.115 515.612C310.314 515.799 310.551 515.947 310.812 516.047C311.073 516.148 311.353 516.199 311.635 516.197H323.483C323.764 516.197 324.043 516.145 324.303 516.044C324.564 515.943 324.8 515.795 324.999 515.608C325.199 515.422 325.357 515.2 325.464 514.957C325.572 514.713 325.628 514.452 325.628 514.188V511.92L330.873 514.758V504.74Z" fill="#263238"/>
<path d="M260.317 526.487C270.238 526.487 278.281 518.956 278.281 509.665C278.281 500.374 270.238 492.843 260.317 492.843C250.395 492.843 242.353 500.374 242.353 509.665C242.353 518.956 250.395 526.487 260.317 526.487Z" fill="#263238" stroke="#263238" stroke-width="0.724166" stroke-linecap="round" stroke-linejoin="round"/>
<path d="M269.41 506.114H251.224C250.72 506.114 250.223 506.217 249.767 506.417C249.311 506.617 248.907 506.909 248.585 507.271C248.263 507.634 248.029 508.058 247.902 508.514C247.774 508.97 247.756 509.447 247.847 509.911L248.373 512.581C248.411 512.762 248.514 512.925 248.665 513.043C248.817 513.161 249.007 513.227 249.203 513.229H254.739C254.967 513.229 255.185 513.144 255.346 512.994C255.507 512.843 255.597 512.639 255.597 512.425V509.535H265.147V512.425C265.147 512.639 265.237 512.843 265.398 512.994C265.559 513.144 265.778 513.229 266.005 513.229H271.541C271.74 513.229 271.933 513.165 272.087 513.047C272.241 512.929 272.347 512.764 272.385 512.581L272.911 509.911C273.005 509.438 272.984 508.95 272.849 508.485C272.715 508.02 272.47 507.59 272.134 507.225C271.798 506.861 271.379 506.572 270.907 506.379C270.435 506.187 269.924 506.096 269.41 506.114Z" fill="#00B4D8"/>
<path d="M354.097 181.414H337.184V190.097H354.097V181.414Z" stroke="#263238" stroke-width="0.821067" stroke-linecap="round" stroke-linejoin="round"/>
<path d="M350.374 181.414H337.184V190.097H350.374V181.414Z" fill="#263238" stroke="#263238" stroke-width="0.725073" stroke-linecap="round" stroke-linejoin="round"/>
<path d="M356.436 183.838H354.055V187.661H356.436V183.838Z" fill="#263238" stroke="#263238" stroke-width="0.725073" stroke-linecap="round" stroke-linejoin="round"/>
<path d="M164.765 184.097H161.665V189.073H164.765V184.097Z" fill="#263238" stroke="#263238" stroke-width="0.883086" stroke-linecap="round" stroke-linejoin="round"/>
<path d="M169.637 182.36H166.537V189.086H169.637V182.36Z" fill="#263238" stroke="#263238" stroke-width="0.883086" stroke-linecap="round" stroke-linejoin="round"/>
<path d="M174.509 180.287H171.409V189.073H174.509V180.287Z" fill="#263238" stroke="#263238" stroke-width="0.883086" stroke-linecap="round" stroke-linejoin="round"/>
</g>
<path d="M362.124 177.708H158.164V534.743H362.124V177.708Z" stroke="#263238" stroke-linecap="round" stroke-linejoin="round"/>
<path d="M111.163 559.017H628.931" stroke="#263238" stroke-width="1.01" stroke-linecap="round" stroke-linejoin="round"/>
<path d="M82.791 559.017H96.4788" stroke="#263238" stroke-width="1.01" stroke-linecap="round" stroke-linejoin="round"/>
</svg>
